<?xml version="1.0" standalone="no"?>
<!DOCTYPE svg PUBLIC "-//W3C//DTD SVG 20010904//EN"
 "http://www.w3.org/TR/2001/REC-SVG-20010904/DTD/svg10.dtd">
<svg version="1.0" xmlns="http://www.w3.org/2000/svg"
 width="500.000000pt" height="500.000000pt" viewBox="0 0 500.000000 500.000000"
 preserveAspectRatio="xMidYMid meet">
<metadata>
Created by potrace 1.14, written by Peter Selinger 2001-2017
</metadata>
<g transform="translate(0.000000,500.000000) scale(0.100000,-0.100000)"
fill="#000000" stroke="none">
<path d="M2470 4306 c0 -2 7 -7 16 -10 8 -3 12 -2 9 4 -6 10 -25 14 -25 6z"/>
<path d="M2516 4299 c3 -5 10 -6 16 -3 6 4 9 3 5 -2 -3 -5 -63 -11 -133 -12
-87 -2 -131 -7 -136 -15 -5 -9 -8 -9 -8 0 0 7 -9 9 -22 5 -21 -5 -21 -6 -2
-13 13 -5 4 -8 -28 -8 -33 -1 -48 -5 -48 -14 0 -13 -12 -17 -54 -18 -10 0 -16
-3 -12 -6 9 -9 -14 -44 -25 -38 -5 4 -9 -1 -9 -9 0 -9 -7 -16 -15 -16 -8 0
-15 -5 -15 -11 0 -5 6 -7 13 -4 6 4 3 -1 -7 -9 -11 -9 -16 -16 -10 -16 5 0 1
-7 -10 -15 -10 -8 -18 -26 -18 -40 0 -23 -2 -24 -14 -8 -10 14 -12 15 -12 3 1
-8 0 -39 0 -69 -2 -41 -5 -52 -16 -48 -14 6 -16 -16 -3 -29 4 -4 7 -12 7 -18
0 -6 -5 -4 -10 4 -7 10 -9 -10 -9 -65 1 -44 6 -86 13 -94 8 -12 8 -13 -1 -7
-7 4 -13 2 -13 -3 0 -6 6 -11 14 -11 7 0 13 -8 13 -17 0 -77 -2 -74 62 -72 35
1 59 7 58 13 -1 5 7 12 18 14 11 2 23 9 27 15 6 11 24 16 66 20 19 2 20 4 7
13 -11 8 -5 11 27 12 24 1 46 8 50 16 5 8 29 14 70 15 78 2 95 5 105 16 4 4 2
5 -6 0 -9 -5 -12 -4 -7 3 4 7 33 12 68 12 56 0 59 -1 47 -17 -13 -17 -12 -17
4 -4 22 18 55 22 64 8 3 -6 1 -7 -5 -3 -6 3 -13 3 -16 -2 -4 -8 51 -16 102
-15 12 1 22 -5 22 -13 0 -8 10 -14 26 -14 14 0 32 -7 40 -15 9 -8 30 -15 47
-16 18 0 26 -3 20 -6 -7 -2 -13 -9 -13 -14 0 -6 6 -9 13 -8 33 4 57 -2 57 -16
0 -8 7 -15 15 -15 8 0 15 -9 15 -20 0 -11 7 -20 15 -20 8 0 15 -7 15 -15 0 -8
7 -15 15 -15 8 0 15 -7 15 -15 0 -8 7 -15 15 -15 8 0 15 -7 15 -15 0 -8 6 -14
12 -12 7 1 14 -8 16 -21 2 -15 9 -22 20 -20 13 2 18 -6 20 -29 2 -21 9 -33 18
-33 8 0 13 -3 13 -7 -5 -28 3 -53 16 -53 11 0 15 -11 15 -40 0 -22 5 -40 11
-40 5 0 7 5 3 12 -4 6 -3 9 2 5 5 -3 11 -33 12 -68 2 -34 9 -67 16 -74 7 -7
13 -34 15 -60 2 -42 0 -47 -16 -41 -16 5 -16 4 -3 -6 17 -14 20 -32 8 -44 -5
-4 -8 1 -9 12 0 11 -3 14 -6 6 -3 -7 1 -20 9 -29 9 -12 9 -15 1 -9 -10 5 -13
-6 -13 -43 0 -39 -4 -51 -15 -51 -10 0 -15 -10 -15 -34 0 -21 -6 -36 -15 -40
-8 -3 -15 -17 -15 -31 0 -16 -6 -25 -15 -25 -14 0 -19 -16 -16 -50 1 -11 -1
-11 -9 3 -16 25 -30 21 -30 -10 0 -22 -2 -25 -10 -13 -9 13 -14 7 -11 -12 1
-8 -16 -12 -34 -8 -5 1 -7 -2 -3 -6 11 -10 -12 -35 -25 -27 -5 3 -7 2 -4 -3 9
-15 -8 -35 -31 -37 -22 -1 -29 -11 -14 -20 4 -2 2 -2 -5 -1 -7 2 -15 -1 -18
-6 -3 -5 -12 -7 -20 -3 -9 3 -15 -1 -15 -11 0 -11 -9 -16 -29 -16 -17 0 -33
-5 -37 -12 -5 -7 -3 -8 6 -3 9 5 11 4 6 -3 -4 -7 -20 -12 -37 -12 -19 0 -29
-5 -29 -15 0 -8 -9 -15 -21 -15 -13 0 -18 -4 -13 -12 5 -9 2 -8 -9 1 -10 8
-21 11 -24 7 -4 -4 -1 -11 7 -16 11 -7 6 -10 -20 -11 -19 -1 -38 -1 -41 -1 -3
1 -6 -6 -6 -14 0 -16 13 -19 20 -4 3 6 4 5 3 -2 -1 -7 -15 -14 -29 -16 -15 -2
-27 -10 -27 -18 0 -8 -7 -14 -15 -14 -8 0 -15 -7 -15 -15 0 -8 -7 -15 -15 -15
-8 0 -15 -7 -15 -15 0 -8 -9 -15 -20 -15 -11 0 -20 -7 -20 -15 0 -8 -7 -15
-15 -15 -8 0 -15 -7 -15 -15 0 -8 -6 -15 -13 -15 -11 0 -15 -12 -19 -57 -1 -7
-5 -10 -10 -7 -5 4 -7 13 -4 21 3 8 1 11 -4 8 -6 -4 -10 -12 -9 -18 4 -29 -2
-58 -10 -53 -11 7 -21 -17 -21 -54 0 -37 -10 -61 -21 -54 -5 3 -9 -25 -10 -63
-2 -108 -4 -131 -13 -140 -5 -4 -6 -3 -2 4 3 6 3 14 -2 17 -4 2 -8 -6 -8 -20
0 -16 5 -23 12 -20 8 3 11 -1 7 -9 -3 -8 -8 -13 -12 -11 -3 2 -6 -25 -7 -60 0
-35 3 -59 7 -52 4 7 5 16 3 20 -3 4 0 8 5 8 6 0 11 -13 11 -28 0 -15 6 -34 13
-41 9 -11 9 -13 0 -7 -7 4 -13 2 -13 -3 0 -17 27 -13 34 4 3 8 17 15 31 15 16
0 25 6 25 15 0 8 7 15 15 15 8 0 15 7 15 15 0 8 7 15 15 15 8 0 15 7 15 15 0
8 9 16 20 16 33 2 38 4 47 13 5 5 3 6 -4 2 -7 -4 -13 -2 -13 3 0 6 12 11 26
11 19 0 25 4 20 15 -4 10 1 15 14 15 13 0 20 7 20 20 0 19 15 25 48 21 7 -1
11 4 10 11 -2 8 9 14 27 16 17 2 35 8 40 13 7 7 3 8 -10 4 -16 -6 -17 -5 -5 4
8 6 25 11 38 11 16 0 21 4 16 13 -5 7 -2 7 10 -2 15 -12 17 -12 14 0 -2 9 8
15 30 17 20 2 32 9 32 18 0 13 33 19 88 17 9 -1 10 3 3 11 -8 9 0 13 32 15 43
2 61 11 39 18 -6 3 -9 9 -6 14 3 6 12 5 22 -3 12 -10 14 -10 8 -1 -5 10 2 13
28 13 19 0 38 4 41 10 3 6 -1 7 -12 4 -17 -5 -17 -5 0 6 10 6 32 12 50 12 18
1 26 3 20 5 -20 7 -15 19 9 20 11 1 25 8 29 15 8 13 12 14 44 17 8 0 15 8 15
16 0 13 32 21 63 16 5 -1 6 3 2 9 -3 6 -12 7 -18 4 -7 -4 -8 -3 -4 2 9 9 13
10 42 13 8 0 15 10 15 21 0 11 7 20 15 20 8 0 15 7 15 15 0 8 7 15 15 15 8 0
15 7 15 15 0 8 7 15 15 15 8 0 15 7 15 15 0 8 9 15 20 15 11 0 20 7 20 15 0 8
7 15 15 15 8 0 15 7 15 15 0 8 7 15 15 15 8 0 15 9 15 20 0 13 5 18 15 14 12
-5 15 2 15 32 0 33 2 36 13 21 11 -16 12 -15 14 5 4 39 9 57 18 65 4 4 5 3 1
-4 -3 -6 -3 -14 2 -17 7 -4 12 17 15 62 0 9 4 9 11 2 17 -17 29 -11 15 7 -10
11 -10 14 -1 9 8 -5 12 2 12 24 0 23 4 31 14 27 7 -3 13 0 13 6 0 7 1 36 1 66
2 46 4 52 17 41 12 -10 15 -10 15 4 0 9 -6 16 -12 16 -10 0 -10 2 -1 8 8 5 13
41 14 104 2 82 5 95 18 91 14 -4 14 -3 1 6 -10 7 -15 30 -16 75 -1 54 2 63 15
59 13 -4 12 -1 -2 10 -10 8 -18 18 -18 21 1 3 1 53 1 111 0 89 -2 104 -15 99
-12 -5 -15 4 -16 47 -1 30 -1 60 0 67 1 6 -3 20 -9 30 -11 16 -11 16 -6 0 3
-10 1 -18 -4 -18 -6 0 -10 20 -10 45 0 38 -3 45 -20 45 -17 0 -20 7 -20 40 0
33 -3 38 -17 33 -16 -6 -17 -5 -3 12 9 11 10 16 3 11 -9 -5 -13 1 -14 21 0 15
-3 22 -6 15 -2 -6 -9 -9 -14 -6 -6 3 -5 12 3 22 10 12 10 14 1 8 -9 -5 -13 0
-13 13 0 12 -7 21 -15 21 -13 0 -21 26 -16 53 1 5 -3 6 -9 2 -6 -3 -8 -11 -5
-16 4 -5 1 -9 -5 -9 -6 0 -10 6 -9 13 5 37 -2 59 -16 53 -10 -4 -15 1 -15 14
0 13 -7 20 -20 20 -11 0 -20 7 -20 15 0 8 -7 15 -15 15 -8 0 -16 7 -16 15 -3
35 -5 40 -17 38 -7 -2 -12 1 -12 7 0 5 -7 7 -15 4 -8 -4 -15 -2 -15 4 0 6 6
13 13 15 6 3 0 6 -15 6 -21 1 -28 6 -28 21 0 13 -7 20 -20 20 -12 0 -17 5 -14
13 3 8 -5 13 -23 15 -15 1 -32 7 -38 13 -7 7 -4 8 10 4 16 -6 17 -5 5 4 -8 6
-23 11 -32 11 -10 0 -18 6 -18 13 0 8 -7 14 -15 15 -8 1 -22 3 -30 4 -9 1 -14
7 -11 15 3 8 -2 13 -12 13 -9 0 -26 7 -36 15 -11 8 -35 15 -54 15 -26 0 -33 4
-29 15 8 19 -2 24 -57 26 -37 2 -44 5 -35 16 9 11 -1 13 -57 15 -90 2 -91 2
-101 12 -4 5 -3 6 4 2 6 -3 14 -2 17 3 3 5 -38 9 -92 10 -111 2 -122 3 -141
15 -10 6 -12 5 -7 -2 5 -8 0 -12 -13 -12 -12 0 -20 5 -18 11 1 6 -6 13 -16 14
-9 2 -15 -1 -11 -6z"/>
<path d="M1590 3915 c0 -8 -7 -15 -16 -15 -8 0 -12 -5 -9 -11 4 -6 -2 -13 -14
-16 -12 -3 -21 -12 -21 -19 0 -8 -9 -14 -20 -14 -13 0 -20 -7 -20 -19 0 -10
-7 -21 -15 -25 -8 -3 -14 -11 -13 -18 2 -7 -4 -12 -12 -13 -8 0 -16 -6 -16
-12 -1 -7 -2 -20 -3 -28 0 -8 -8 -15 -16 -15 -13 0 -21 -26 -16 -53 1 -5 -3
-6 -9 -2 -6 3 -7 12 -4 18 4 7 3 9 -1 4 -5 -4 -10 -16 -12 -27 -2 -11 -4 -29
-6 -40 -2 -11 -7 -23 -12 -27 -4 -5 -5 -2 0 6 5 9 4 12 -3 7 -7 -4 -12 -24
-12 -44 0 -34 -1 -35 -15 -16 -15 18 -15 18 -8 0 4 -13 3 -17 -5 -12 -8 5 -12
-6 -13 -36 -1 -24 -1 -47 0 -51 1 -5 -3 -6 -9 -2 -6 3 -7 12 -4 18 4 7 3 8 -2
4 -11 -10 -11 -13 -13 -78 -1 -37 -5 -50 -14 -46 -7 3 -13 -3 -14 -12 0 -9 -2
-67 -3 -128 -1 -62 -6 -111 -10 -108 -5 3 -12 0 -16 -6 -4 -7 -3 -9 4 -5 6 3
13 2 16 -3 4 -5 2 -12 -4 -16 -7 -4 -7 -12 0 -25 5 -10 10 -68 10 -129 0 -92
3 -111 15 -111 8 0 14 -3 14 -7 -1 -5 -1 -32 0 -60 1 -40 5 -53 16 -53 11 0
15 -12 15 -48 0 -37 4 -49 15 -49 11 0 12 4 5 11 -14 14 -13 29 2 24 11 -4 15
-19 20 -70 1 -15 6 -24 10 -22 5 3 5 11 2 17 -5 8 -4 9 4 2 6 -6 12 -25 14
-43 1 -19 7 -36 12 -39 5 -3 6 -1 2 5 -3 6 -2 14 4 17 6 4 10 3 9 -2 -5 -27 3
-53 15 -53 8 0 16 -10 18 -22 2 -13 9 -22 16 -20 8 1 11 -2 7 -8 -3 -6 -11 -8
-16 -5 -5 4 -9 1 -9 -4 0 -6 9 -11 20 -11 13 0 18 -5 14 -15 -4 -9 0 -15 10
-15 9 0 16 -7 16 -15 0 -8 9 -15 20 -15 11 0 20 -7 20 -15 0 -8 7 -15 15 -15
8 0 15 -7 15 -15 0 -8 7 -15 15 -15 8 0 15 -7 15 -15 0 -8 7 -15 15 -15 8 0
15 -9 15 -20 0 -11 7 -20 15 -20 8 0 15 -7 15 -15 0 -8 6 -15 14 -15 8 0 16
-7 20 -15 3 -8 9 -15 13 -14 20 3 33 -2 31 -13 -3 -12 2 -14 37 -17 8 0 15 -8
15 -17 0 -8 4 -13 9 -9 5 3 12 1 16 -5 4 -6 10 -8 15 -5 5 3 13 -2 18 -10 4
-9 18 -17 30 -18 14 -1 18 -5 12 -11 -13 -13 -13 -26 1 -26 5 0 7 5 4 10 -3 6
-1 10 4 10 6 0 11 -4 11 -10 0 -5 11 -10 25 -10 15 0 24 -5 23 -12 -2 -9 18
-13 70 -15 64 -1 71 1 55 13 -17 13 -17 13 0 14 13 0 17 8 17 35 0 32 7 40 33
36 4 0 6 2 6 6 -6 35 3 83 14 83 9 0 14 12 15 30 1 33 10 53 21 46 4 -3 8 7 9
21 2 31 11 45 23 38 5 -4 9 20 9 55 0 51 -3 61 -15 56 -11 -4 -15 1 -15 19 0
16 -6 25 -15 25 -8 0 -15 7 -15 15 0 8 -9 15 -21 15 -11 0 -17 4 -14 10 3 6 1
11 -4 11 -6 1 -15 3 -21 4 -5 1 -17 3 -25 4 -8 0 -15 8 -15 16 0 8 -7 15 -15
15 -8 0 -15 7 -15 15 0 8 -7 15 -15 15 -8 0 -15 7 -15 15 0 8 -7 15 -15 15 -8
0 -15 9 -15 20 0 11 -7 20 -15 20 -14 0 -19 17 -16 46 1 6 -5 11 -14 11 -8 0
-11 -5 -8 -10 3 -6 1 -7 -5 -3 -7 4 -12 16 -12 27 0 10 -7 19 -15 19 -9 0 -15
9 -15 25 0 14 -7 28 -15 31 -9 4 -15 19 -15 40 0 25 -4 34 -17 34 -15 0 -14 2
3 15 16 13 16 14 2 9 -15 -5 -18 0 -19 32 -1 22 -1 45 0 52 1 7 -4 11 -11 10
-10 -2 -14 19 -16 85 -2 70 0 87 10 81 10 -6 9 -3 -1 9 -12 15 -9 21 12 18 4
0 7 20 7 45 0 33 5 51 18 60 16 13 16 14 -3 8 -19 -5 -19 -5 -2 9 14 12 18 27
16 71 -2 39 -7 56 -16 56 -8 0 -13 13 -13 36 0 21 -4 33 -10 29 -5 -3 -10 -3
-11 2 0 4 -3 17 -5 28 -3 11 -6 30 -7 41 -1 13 -7 19 -14 17 -8 -3 -13 3 -13
16 0 12 -4 21 -10 21 -5 0 -10 8 -10 18 0 14 2 15 10 2 8 -13 10 -12 10 3 0 9
-7 17 -15 17 -10 0 -15 11 -16 38 -1 20 -1 40 0 45 0 4 -4 7 -10 7 -6 0 -8 -8
-5 -17 5 -15 4 -15 -9 1 -11 15 -15 47 -15 128 l0 108 -45 0 c-33 0 -45 -4
-45 -15z m520 -1455 c0 -5 -5 -10 -11 -10 -5 0 -7 5 -4 10 3 6 8 10 11 10 2 0
4 -4 4 -10z m0 -400 c0 -5 -5 -10 -11 -10 -5 0 -7 5 -4 10 3 6 8 10 11 10 2 0
4 -4 4 -10z"/>
<path d="M2477 3749 c7 -7 15 -10 18 -7 3 3 -2 9 -12 12 -14 6 -15 5 -6 -5z"/>
<path d="M1826 3413 c-6 -14 -5 -15 5 -6 7 7 10 15 7 18 -3 3 -9 -2 -12 -12z"/>
<path d="M3787 3073 c-6 -10 -2 -51 4 -58 3 -2 5 11 5 30 -1 36 -2 40 -9 28z"/>
<path d="M3175 2880 c-3 -5 -1 -10 4 -10 6 0 11 5 11 10 0 6 -2 10 -4 10 -3 0
-8 -4 -11 -10z"/>
<path d="M2376 1295 c5 -12 -4 -15 -45 -16 -65 -2 -68 -2 -78 -13 -4 -5 -3 -6
4 -2 6 3 14 2 18 -4 4 -6 -7 -10 -25 -10 -25 0 -31 -4 -26 -15 4 -10 -1 -15
-14 -15 -11 0 -20 -7 -20 -15 0 -8 -7 -15 -15 -15 -10 0 -15 -10 -15 -30 0
-16 -7 -33 -15 -38 -22 -12 -18 -259 4 -254 12 3 12 1 0 -14 -8 -10 -9 -15 -2
-11 7 5 13 -1 15 -15 2 -14 9 -22 18 -20 8 2 12 0 8 -3 -10 -10 11 -47 23 -40
5 4 9 -1 9 -9 0 -9 7 -16 15 -16 8 0 15 -7 15 -15 0 -11 12 -15 44 -15 26 0
48 -6 56 -15 15 -18 177 -16 188 2 4 7 25 13 46 15 20 1 40 6 43 12 3 5 1 6
-5 2 -6 -3 -14 -2 -17 4 -4 6 -3 10 2 9 20 -4 53 2 52 9 -4 21 3 31 16 26 11
-5 15 1 15 24 0 22 6 32 20 37 16 5 20 15 20 47 0 27 6 45 18 54 16 13 16 13
0 14 -12 0 -15 5 -11 16 4 12 8 13 14 3 5 -8 7 0 5 20 -1 18 -8 36 -15 40 -7
5 -12 19 -11 32 6 65 0 89 -20 89 -13 0 -20 7 -20 20 0 11 -7 20 -15 20 -8 0
-15 5 -15 11 0 5 4 8 9 4 5 -3 13 0 17 6 4 7 3 9 -4 5 -6 -3 -13 -2 -17 3 -3
6 -13 7 -23 4 -13 -4 -13 -2 3 11 11 9 16 16 10 15 -38 -5 -67 2 -62 15 4 9 0
15 -11 14 -65 0 -90 6 -85 21 4 11 0 9 -10 -4 -15 -18 -16 -18 -17 -2 0 9 -3
17 -7 17 -3 0 -16 -8 -27 -17 -18 -16 -19 -16 -8 -1 12 15 11 17 -7 15 -11 0
-17 -5 -15 -9 3 -4 0 -8 -5 -8 -6 0 -11 5 -11 10 0 6 -4 10 -10 10 -5 0 -7 -7
-4 -15z"/>
</g>
</svg>
